<svg width="94" height="32" viewBox="0 0 94 32" fill="none" xmlns="http://www.w3.org/2000/svg">
<path d="M86.5144 0.000104H7.4898C7.20175 0.000104 6.91715 0.000104 6.62985 0.00170399C6.38936 0.00330399 6.15079 0.00795197 5.90799 0.011864C5.38051 0.0181854 4.85428 0.0654448 4.33386 0.153232C3.81417 0.242929 3.31076 0.412035 2.84066 0.65483C2.37113 0.899678 1.94211 1.21783 1.56916 1.59775C1.19425 1.97661 0.881731 2.41451 0.643626 2.89462C0.404864 3.37378 0.239305 3.88724 0.152668 4.41727C0.0652078 4.94664 0.0181445 5.4821 0.0119008 6.01887C0.00461108 6.26415 0.00384125 6.51024 0 6.75555V25.2469C0.00384125 25.4953 0.00461108 25.7359 0.0119008 25.9844C0.0181464 26.5212 0.0652097 27.0566 0.152668 27.5859C0.239066 28.1163 0.404634 28.63 0.643626 29.1094C0.881623 29.5879 1.19418 30.0241 1.56916 30.4008C1.94069 30.7824 2.36999 31.1008 2.84066 31.3438C3.31076 31.5872 3.81411 31.7573 4.33386 31.8484C4.85437 31.9355 5.38055 31.9828 5.90799 31.9898C6.15079 31.9953 6.38936 31.9984 6.62985 31.9984C6.91714 32 7.20176 32 7.4898 32H86.5144C86.7967 32 87.0836 32 87.3659 31.9984C87.6053 31.9984 87.8508 31.9953 88.0901 31.9898C88.6166 31.9831 89.1418 31.9359 89.6612 31.8484C90.1826 31.7567 90.6878 31.5866 91.1601 31.3438C91.6304 31.1006 92.0593 30.7823 92.4305 30.4008C92.8045 30.0226 93.1177 29.5868 93.3587 29.1094C93.5959 28.6297 93.7599 28.116 93.845 27.5859C93.9326 27.0565 93.9813 26.5212 93.9908 25.9844C93.9939 25.7359 93.9939 25.4953 93.9939 25.2469C94 24.9563 94 24.6672 94 24.3719V7.62898C94 7.33602 94 7.04539 93.9939 6.75555C93.9939 6.51024 93.9939 6.26415 93.9908 6.01884C93.9813 5.48202 93.9326 4.94668 93.845 4.41724C93.7596 3.88752 93.5957 3.3741 93.3587 2.89459C92.8738 1.93225 92.1049 1.14892 91.1601 0.654758C90.6878 0.412557 90.1826 0.243496 89.6612 0.153159C89.1418 0.064986 88.6166 0.0177102 88.0901 0.011752C87.8508 0.00784797 87.6053 0.00315999 87.3659 0.00159999C87.0836 0 86.7967 0 86.5144 0V0.000104Z" fill="#A6A6A6"/>
<path d="M6.6337 31.3C6.39436 31.3 6.16081 31.2969 5.92335 31.2914C5.43144 31.2849 4.94067 31.2413 4.45508 31.1609C4.00229 31.0815 3.56366 30.9338 3.15366 30.7226C2.74741 30.5132 2.37689 30.2386 2.05627 29.9093C1.73101 29.584 1.46022 29.2066 1.25463 28.7921C1.04677 28.375 0.902914 27.9279 0.828082 27.4664C0.74727 26.9705 0.703548 26.469 0.697291 25.9664C0.692311 25.7977 0.685791 25.2359 0.685791 25.2359V6.75553C0.685791 6.75553 0.692735 6.2024 0.697331 6.0399C0.703321 5.53804 0.746789 5.03738 0.82736 4.54224C0.90233 4.07946 1.04629 3.63106 1.25427 3.21257C1.4591 2.79842 1.72839 2.42076 2.05169 2.09421C2.37463 1.76457 2.74634 1.48855 3.15327 1.27624C3.56234 1.06575 4.00014 0.919059 4.45201 0.841089C4.9392 0.759942 5.43166 0.71607 5.92528 0.709841L6.63409 0.700073H87.3621L88.0794 0.710233C88.5685 0.716153 89.0565 0.759633 89.5392 0.840305C89.9957 0.919253 90.438 1.06696 90.8518 1.27858C91.667 1.70646 92.3304 2.3834 92.7488 3.21452C92.9535 3.63013 93.0952 4.07487 93.1692 4.53365C93.2508 5.03285 93.2964 5.53745 93.3058 6.04342C93.308 6.26998 93.308 6.51333 93.308 6.75553C93.3143 7.05552 93.3142 7.34107 93.3142 7.62895V24.3718C93.3142 24.6625 93.3143 24.9461 93.308 25.232C93.308 25.4922 93.308 25.7305 93.305 25.9757C93.2958 26.4727 93.2509 26.9683 93.1707 27.4585C93.0974 27.9234 92.9544 28.374 92.7465 28.7945C92.5395 29.2045 92.2703 29.5786 91.9488 29.9031C91.6279 30.2341 91.2567 30.5103 90.8495 30.7211C90.4369 30.9339 89.9952 31.0822 89.5392 31.1609C89.0537 31.2417 88.5629 31.2853 88.0709 31.2914C87.8408 31.2969 87.5999 31.3 87.366 31.3L86.5145 31.3016L6.6337 31.3Z" fill="black"/>
<path d="M19.4568 16.2406C19.4652 15.5729 19.6394 14.9182 19.963 14.3374C20.2867 13.7566 20.7493 13.2687 21.3079 12.919C20.9531 12.4028 20.4849 11.9781 19.9407 11.6784C19.3965 11.3788 18.7911 11.2125 18.1727 11.1928C16.8536 11.0518 15.5748 11.9967 14.9027 11.9967C14.2175 11.9967 13.1825 11.2068 12.0681 11.2302C11.3472 11.2539 10.6447 11.4674 10.0289 11.8498C9.41313 12.2323 8.90515 12.7706 8.55443 13.4125C7.03522 16.0912 8.16842 20.028 9.6237 22.1933C10.3518 23.2536 11.2028 24.4379 12.3162 24.3959C13.4058 24.3499 13.8127 23.6883 15.1279 23.6883C16.431 23.6883 16.8128 24.3959 17.9488 24.3692C19.118 24.3499 19.8546 23.3042 20.5572 22.2339C21.0803 21.4784 21.4829 20.6434 21.7499 19.7599C21.0707 19.4673 20.491 18.9776 20.0832 18.3518C19.6754 17.7259 19.4576 16.9917 19.4568 16.2406Z" fill="white"/>
<path d="M17.311 9.7688C17.9485 8.98944 18.2626 7.9877 18.1865 6.97632C17.2126 7.08049 16.3129 7.55454 15.6669 8.304C15.351 8.67013 15.109 9.09608 14.9549 9.55749C14.8007 10.0189 14.7374 10.5067 14.7684 10.9931C15.2556 10.9982 15.7375 10.8907 16.1779 10.6786C16.6183 10.4665 17.0058 10.1555 17.311 9.7688Z" fill="white"/>
<path d="M33.2298 21.7117H29.5115L28.6186 24.3969H27.0437L30.5656 14.4625H32.2018L35.7237 24.3969H34.1219L33.2298 21.7117ZM29.8966 20.4727H32.8439L31.391 16.1149H31.3504L29.8966 20.4727Z" fill="white"/>
<path d="M43.3297 20.7759C43.3297 23.0267 42.1468 24.4728 40.3617 24.4728C39.9095 24.4968 39.4598 24.3908 39.064 24.1667C38.6683 23.9425 38.3425 23.6095 38.124 23.2056H38.0902V26.793H36.6304V17.154H38.0434V18.3587H38.0703C38.2988 17.9567 38.6301 17.6254 39.0289 17.3999C39.4276 17.1744 39.879 17.0633 40.3348 17.0782C42.1398 17.0782 43.3297 18.5314 43.3297 20.7759ZM41.8292 20.7759C41.8292 19.3095 41.0851 18.3454 39.9497 18.3454C38.8343 18.3454 38.0841 19.3298 38.0841 20.7759C38.0841 22.2353 38.8343 23.2126 39.9497 23.2126C41.0851 23.2126 41.8292 22.2556 41.8292 20.7759Z" fill="white"/>
<path d="M51.1575 20.7759C51.1575 23.0267 49.9746 24.4727 48.1896 24.4727C47.7374 24.4968 47.2876 24.3907 46.8919 24.1666C46.4962 23.9425 46.1704 23.6095 45.9519 23.2055H45.9181V26.793H44.4583V17.154H45.8713V18.3587H45.8981C46.1267 17.9567 46.458 17.6254 46.8567 17.3999C47.2555 17.1744 47.7068 17.0633 48.1627 17.0782C49.9677 17.0782 51.1575 18.5314 51.1575 20.7759ZM49.6571 20.7759C49.6571 19.3095 48.9129 18.3454 47.7776 18.3454C46.6622 18.3454 45.912 19.3298 45.912 20.7759C45.912 22.2353 46.6622 23.2126 47.7776 23.2126C48.913 23.2126 49.6571 22.2556 49.6571 20.7759H49.6571Z" fill="white"/>
<path d="M56.331 21.6289C56.4392 22.6141 57.3789 23.2609 58.6631 23.2609C59.8936 23.2609 60.7788 22.614 60.7788 21.7258C60.7788 20.9547 60.2449 20.493 58.9807 20.1765L57.7165 19.8664C55.9252 19.4258 55.0937 18.5726 55.0937 17.1883C55.0937 15.4742 56.5604 14.2969 58.6432 14.2969C60.7044 14.2969 62.1174 15.4742 62.165 17.1883H60.6914C60.6031 16.1969 59.7984 15.5984 58.6224 15.5984C57.4464 15.5984 56.6417 16.2039 56.6417 17.0852C56.6417 17.7875 57.1557 18.2008 58.413 18.5171L59.4877 18.7859C61.4892 19.2679 62.3207 20.0867 62.3207 21.5398C62.3207 23.3984 60.867 24.5624 58.5549 24.5624C56.3916 24.5624 54.931 23.4257 54.8367 21.6288L56.331 21.6289Z" fill="white"/>
<path d="M65.471 15.4398V17.1539H66.8235V18.3312H65.471V22.3242C65.471 22.9445 65.7418 23.2335 66.3363 23.2335C66.4969 23.2307 66.6572 23.2192 66.8166 23.1991V24.3695C66.5493 24.4203 66.2776 24.4433 66.0057 24.4382C64.5658 24.4382 64.0043 23.8874 64.0043 22.4827V18.3312H62.9702V17.1539H64.0043V15.4398H65.471Z" fill="white"/>
<path d="M67.6069 20.7757C67.6069 18.4968 68.9248 17.0648 70.98 17.0648C73.042 17.0648 74.3538 18.4968 74.3538 20.7757C74.3538 23.0609 73.0489 24.4867 70.98 24.4867C68.9118 24.4867 67.6069 23.0609 67.6069 20.7757ZM72.8663 20.7757C72.8663 19.2125 72.1629 18.2898 70.98 18.2898C69.7971 18.2898 69.0944 19.2195 69.0944 20.7757C69.0944 22.3453 69.7971 23.2609 70.98 23.2609C72.1629 23.2609 72.8663 22.3453 72.8663 20.7757H72.8663Z" fill="white"/>
<path d="M75.5571 17.154H76.9495V18.3868H76.9832C77.0774 18.0017 77.2989 17.6615 77.6104 17.4232C77.922 17.1848 78.3046 17.063 78.6939 17.0782C78.8621 17.0776 79.0299 17.0962 79.1941 17.1336V18.5243C78.9817 18.4582 78.7601 18.4278 78.5382 18.4344C78.3261 18.4257 78.1147 18.4637 77.9184 18.546C77.7221 18.6284 77.5457 18.7529 77.4012 18.9113C77.2567 19.0696 77.1475 19.2578 77.0812 19.4632C77.0148 19.6685 76.9929 19.886 77.017 20.1008V24.3969H75.5571L75.5571 17.154Z" fill="white"/>
<path d="M85.925 22.2695C85.7286 23.5843 84.4713 24.4867 82.8626 24.4867C80.7937 24.4867 79.5095 23.0749 79.5095 20.8101C79.5095 18.5383 80.8006 17.0648 82.8013 17.0648C84.7689 17.0648 86.0063 18.4414 86.0063 20.6375V21.1468H80.9832V21.2367C80.96 21.5032 80.9928 21.7718 81.0793 22.0244C81.1659 22.2771 81.3042 22.5081 81.4852 22.7022C81.6661 22.8962 81.8855 23.0488 82.1288 23.1499C82.3722 23.2509 82.6338 23.2981 82.8964 23.2882C83.2414 23.3211 83.5876 23.2398 83.8835 23.0562C84.1794 22.8727 84.4092 22.5967 84.5388 22.2695L85.925 22.2695ZM80.9901 20.1078H84.5457C84.5588 19.8681 84.5231 19.6283 84.4409 19.4033C84.3587 19.1783 84.2317 18.9731 84.0679 18.8005C83.9041 18.6279 83.707 18.4916 83.489 18.4002C83.2711 18.3089 83.0369 18.2643 82.8013 18.2695C82.5635 18.2681 82.3279 18.3146 82.1079 18.4064C81.8879 18.4982 81.6879 18.6334 81.5196 18.8043C81.3512 18.9752 81.2177 19.1784 81.1268 19.4021C81.0359 19.6258 80.9895 19.8657 80.9901 20.1078V20.1078Z" fill="white"/>
<path d="M29.7138 6.98479C30.0198 6.96242 30.327 7.00951 30.613 7.12265C30.899 7.2358 31.1568 7.41218 31.3678 7.63908C31.5788 7.86598 31.7377 8.13774 31.833 8.43476C31.9284 8.73177 31.9579 9.04664 31.9193 9.35665C31.9193 10.8816 31.11 11.7582 29.7138 11.7582H28.0208V6.98479H29.7138ZM28.7487 11.0832H29.6325C29.8512 11.0965 30.07 11.06 30.2731 10.9763C30.4762 10.8926 30.6584 10.7638 30.8065 10.5994C30.9546 10.4349 31.0647 10.2389 31.1291 10.0256C31.1934 9.81233 31.2102 9.58712 31.1782 9.36638C31.2078 9.14651 31.1893 8.9227 31.124 8.71097C31.0588 8.49924 30.9483 8.30483 30.8006 8.14169C30.6528 7.97855 30.4715 7.8507 30.2695 7.76731C30.0676 7.68392 29.85 7.64706 29.6325 7.65935H28.7487V11.0832Z" fill="white"/>
<path d="M32.7415 9.95552C32.7193 9.71879 32.7459 9.47993 32.8196 9.25428C32.8933 9.02863 33.0125 8.82115 33.1696 8.64517C33.3266 8.46918 33.5181 8.32857 33.7316 8.23235C33.9452 8.13613 34.1761 8.08643 34.4096 8.08643C34.6432 8.08643 34.8741 8.13613 35.0876 8.23235C35.3012 8.32857 35.4926 8.46918 35.6497 8.64517C35.8068 8.82115 35.926 9.02863 35.9997 9.25428C36.0734 9.47993 36.1 9.71879 36.0777 9.95552C36.1004 10.1925 36.0741 10.4317 36.0006 10.6577C35.9271 10.8837 35.808 11.0916 35.6509 11.2679C35.4938 11.4442 35.3022 11.5851 35.0884 11.6816C34.8746 11.778 34.6434 11.8278 34.4096 11.8278C34.1758 11.8278 33.9446 11.778 33.7309 11.6816C33.5171 11.5851 33.3255 11.4442 33.1684 11.2679C33.0113 11.0916 32.8922 10.8837 32.8187 10.6577C32.7451 10.4317 32.7189 10.1925 32.7415 9.95552ZM35.3597 9.95552C35.3597 9.17467 35.0153 8.71803 34.4108 8.71803C33.804 8.71803 33.4627 9.17467 33.4627 9.95553C33.4627 10.7426 33.804 11.1958 34.4108 11.1958C35.0153 11.1958 35.3597 10.7395 35.3597 9.95552H35.3597Z" fill="white"/>
<path d="M40.5125 11.7582H39.7884L39.0573 9.1051H39.0021L38.2741 11.7582H37.5568L36.5818 8.15588H37.2898L37.9235 10.9047H37.9757L38.7029 8.15588H39.3726L40.0998 10.9047H40.155L40.7856 8.15588H41.4837L40.5125 11.7582Z" fill="white"/>
<path d="M42.304 8.15597H42.976V8.72823H43.0281C43.1166 8.52269 43.2659 8.3504 43.4551 8.23535C43.6443 8.12031 43.864 8.06825 44.0837 8.08643C44.2558 8.07325 44.4286 8.09968 44.5893 8.16376C44.75 8.22784 44.8945 8.32792 45.0121 8.45659C45.1297 8.58527 45.2174 8.73924 45.2686 8.90709C45.3198 9.07495 45.3333 9.25239 45.308 9.42627V11.7583H44.6099V9.6048C44.6099 9.02589 44.3629 8.738 43.8466 8.738C43.7298 8.73246 43.6131 8.75271 43.5047 8.79737C43.3962 8.84204 43.2986 8.91006 43.2183 8.99676C43.1381 9.08347 43.0772 9.18682 43.0399 9.29972C43.0026 9.41263 42.9897 9.53242 43.002 9.65088V11.7583H42.304L42.304 8.15597Z" fill="white"/>
<path d="M46.4202 6.74963H47.1183V11.7582H46.4202V6.74963Z" fill="white"/>
<path d="M48.0884 9.95547C48.0662 9.71872 48.0928 9.47985 48.1666 9.25419C48.2403 9.02852 48.3595 8.82104 48.5166 8.64506C48.6737 8.46907 48.8651 8.32845 49.0787 8.23223C49.2923 8.13601 49.5232 8.0863 49.7567 8.0863C49.9903 8.0863 50.2212 8.13601 50.4348 8.23223C50.6484 8.32845 50.8398 8.46907 50.9969 8.64506C51.154 8.82104 51.2732 9.02852 51.3469 9.25419C51.4207 9.47985 51.4473 9.71872 51.425 9.95547C51.4477 10.1925 51.4214 10.4316 51.3478 10.6577C51.2743 10.8837 51.1551 11.0915 50.998 11.2679C50.8409 11.4442 50.6493 11.5851 50.4355 11.6815C50.2218 11.7779 49.9905 11.8277 49.7567 11.8277C49.5229 11.8277 49.2917 11.7779 49.078 11.6815C48.8642 11.5851 48.6726 11.4442 48.5155 11.2679C48.3584 11.0915 48.2392 10.8837 48.1657 10.6577C48.0921 10.4316 48.0658 10.1925 48.0884 9.95547ZM50.7066 9.95547C50.7066 9.17461 50.3622 8.71798 49.7577 8.71798C49.1509 8.71798 48.8096 9.17461 48.8096 9.95548C48.8096 10.7426 49.1509 11.1957 49.7577 11.1957C50.3622 11.1957 50.7066 10.7394 50.7066 9.95547H50.7066Z" fill="white"/>
<path d="M52.1602 10.7394C52.1602 10.091 52.6342 9.71715 53.4758 9.66403L54.4339 9.60778V9.29684C54.4339 8.91637 54.1869 8.70153 53.7097 8.70153C53.32 8.70153 53.05 8.84724 52.9725 9.10192H52.2967C52.368 8.48317 52.9396 8.0863 53.742 8.0863C54.6288 8.0863 55.1289 8.5359 55.1289 9.29684V11.7582H54.4569V11.2519H54.4017C54.2896 11.4335 54.1322 11.5815 53.9455 11.6809C53.7588 11.7803 53.5496 11.8274 53.3392 11.8175C53.1907 11.8332 53.0406 11.8171 52.8987 11.7702C52.7567 11.7232 52.6259 11.6465 52.5148 11.5449C52.4037 11.4433 52.3148 11.3191 52.2537 11.1804C52.1926 11.0417 52.1607 10.8915 52.1602 10.7394ZM54.4339 10.4316V10.1304L53.5701 10.1867C53.083 10.2199 52.8621 10.3886 52.8621 10.7062C52.8621 11.0304 53.1382 11.2191 53.518 11.2191C53.6293 11.2306 53.7416 11.2191 53.8485 11.1855C53.9553 11.1518 54.0544 11.0966 54.1399 11.0231C54.2253 10.9496 54.2954 10.8594 54.3459 10.7578C54.3964 10.6562 54.4264 10.5452 54.4339 10.4316Z" fill="white"/>
<path d="M56.0464 9.95549C56.0464 8.81722 56.621 8.09613 57.5147 8.09613C57.7357 8.08575 57.9551 8.13967 58.1472 8.25159C58.3393 8.3635 58.4961 8.52879 58.5994 8.72812H58.6515V6.74963H59.3496V11.7582H58.6807V11.1891H58.6255C58.5142 11.3871 58.3519 11.5503 58.1561 11.6611C57.9603 11.7719 57.7385 11.826 57.5147 11.8176C56.6148 11.8176 56.0464 11.0965 56.0464 9.95549ZM56.7675 9.95549C56.7675 10.7196 57.1212 11.1793 57.7126 11.1793C58.301 11.1793 58.6646 10.7129 58.6646 9.95862C58.6646 9.20784 58.2972 8.73479 57.7126 8.73479C57.125 8.73479 56.7675 9.19768 56.7675 9.95549H56.7675Z" fill="white"/>
<path d="M62.2379 9.95552C62.2156 9.71879 62.2422 9.47993 62.3159 9.25428C62.3897 9.02863 62.5089 8.82115 62.6659 8.64517C62.823 8.46918 63.0144 8.32857 63.228 8.23235C63.4415 8.13613 63.6725 8.08643 63.906 8.08643C64.1395 8.08643 64.3704 8.13613 64.584 8.23235C64.7975 8.32857 64.989 8.46918 65.146 8.64517C65.3031 8.82115 65.4223 9.02863 65.496 9.25428C65.5697 9.47993 65.5963 9.71879 65.5741 9.95552C65.5967 10.1925 65.5705 10.4317 65.4969 10.6577C65.4234 10.8837 65.3043 11.0916 65.1472 11.2679C64.9901 11.4442 64.7985 11.5851 64.5847 11.6816C64.371 11.778 64.1398 11.8278 63.906 11.8278C63.6722 11.8278 63.441 11.778 63.2272 11.6816C63.0135 11.5851 62.8219 11.4442 62.6648 11.2679C62.5077 11.0916 62.3885 10.8837 62.315 10.6577C62.2415 10.4317 62.2152 10.1925 62.2379 9.95552ZM64.856 9.95552C64.856 9.17467 64.5116 8.71803 63.9071 8.71803C63.3003 8.71803 62.959 9.17467 62.959 9.95553C62.959 10.7426 63.3004 11.1958 63.9071 11.1958C64.5116 11.1958 64.856 10.7395 64.856 9.95552Z" fill="white"/>
<path d="M66.5107 8.15597H67.1827V8.72823H67.2349C67.3234 8.52269 67.4727 8.3504 67.6619 8.23535C67.8511 8.12031 68.0708 8.06825 68.2905 8.08643C68.4626 8.07325 68.6354 8.09968 68.7961 8.16376C68.9568 8.22784 69.1013 8.32792 69.2189 8.45659C69.3365 8.58527 69.4241 8.73924 69.4754 8.90709C69.5266 9.07495 69.54 9.25239 69.5148 9.42627V11.7583H68.8167V9.6048C68.8167 9.02589 68.5697 8.738 68.0534 8.738C67.9366 8.73246 67.8199 8.75271 67.7115 8.79737C67.603 8.84204 67.5053 8.91006 67.4251 8.99676C67.3449 9.08347 67.284 9.18682 67.2467 9.29972C67.2094 9.41263 67.1964 9.53242 67.2088 9.65088V11.7583H66.5107V8.15597Z" fill="white"/>
<path d="M73.4594 7.25903V8.17231H74.2257V8.77114H73.4594V10.6235C73.4594 11.0008 73.612 11.1661 73.9595 11.1661C74.0485 11.1658 74.1374 11.1603 74.2257 11.1496V11.7418C74.1004 11.7647 73.9733 11.7768 73.846 11.7782C73.0697 11.7782 72.7605 11.5 72.7605 10.8055V8.77111H72.199V8.17228H72.7605V7.25903H73.4594Z" fill="white"/>
<path d="M75.179 6.74963H75.8709V8.73479H75.9261C76.0189 8.52733 76.1723 8.35406 76.3653 8.23858C76.5583 8.1231 76.7816 8.07104 77.0047 8.08948C77.1759 8.07999 77.347 8.1091 77.5059 8.17473C77.6648 8.24037 77.8076 8.3409 77.9239 8.46917C78.0403 8.59744 78.1274 8.75029 78.1791 8.91679C78.2307 9.0833 78.2457 9.25937 78.2229 9.43244V11.7582H77.5241V9.60782C77.5241 9.03243 77.2609 8.74103 76.7677 8.74103C76.6477 8.73101 76.527 8.7478 76.4141 8.79025C76.3011 8.83269 76.1987 8.89975 76.1138 8.98674C76.029 9.07373 75.9639 9.17855 75.923 9.29386C75.8821 9.40917 75.8664 9.53218 75.8771 9.6543V11.7582H75.179L75.179 6.74963Z" fill="white"/>
<path d="M82.2933 10.7855C82.1985 11.1147 81.993 11.3995 81.7128 11.59C81.4326 11.7805 81.0956 11.8646 80.7606 11.8276C80.5276 11.8339 80.296 11.7884 80.0819 11.6944C79.8679 11.6004 79.6765 11.4601 79.521 11.2831C79.3655 11.1062 79.2497 10.897 79.1817 10.6699C79.1136 10.4429 79.0948 10.2035 79.1267 9.96827C79.0956 9.73236 79.1147 9.49242 79.1827 9.26468C79.2506 9.03694 79.3658 8.82673 79.5204 8.64827C79.6751 8.46981 79.8656 8.32727 80.079 8.23031C80.2925 8.13334 80.5239 8.08421 80.7576 8.08624C81.7418 8.08624 82.3355 8.77104 82.3355 9.90224V10.1503H79.8378V10.1901C79.8268 10.3223 79.8432 10.4554 79.8857 10.5808C79.9282 10.7062 79.996 10.8212 80.0847 10.9183C80.1734 11.0155 80.281 11.0927 80.4007 11.145C80.5204 11.1974 80.6495 11.2236 80.7798 11.2221C80.9468 11.2426 81.116 11.2119 81.2658 11.1342C81.4157 11.0564 81.5394 10.935 81.6213 10.7854L82.2933 10.7855ZM79.8378 9.62452H81.6244C81.6332 9.50362 81.6171 9.38218 81.577 9.268C81.537 9.15383 81.474 9.04944 81.392 8.96156C81.31 8.87367 81.2108 8.80423 81.1009 8.75769C80.991 8.71115 80.8727 8.68854 80.7537 8.69132C80.633 8.68978 80.5131 8.71286 80.4013 8.75922C80.2895 8.80557 80.1879 8.87426 80.1025 8.96123C80.0172 9.0482 79.9498 9.15169 79.9043 9.26561C79.8588 9.37953 79.8362 9.50156 79.8378 9.62452H79.8378Z" fill="white"/>
</svg>
