<svg width="106" height="32" viewBox="0 0 106 32" fill="none" xmlns="http://www.w3.org/2000/svg">
<path d="M102.074 32H3.92593C1.76667 32 0 30.2 0 28V4C0 1.8 1.76667 -1.27156e-07 3.92593 -1.27156e-07H102.074C104.233 -1.27156e-07 106 1.8 106 4V28C106 30.2 104.233 32 102.074 32Z" fill="black"/>
<path d="M102.074 -1.27156e-07H3.92593C1.76667 -1.27156e-07 0 1.8 0 4V28C0 30.2 1.76667 32 3.92593 32H102.074C104.233 32 106 30.2 106 28V4C106 1.8 104.233 -1.27156e-07 102.074 -1.27156e-07ZM102.074 0.64C103.893 0.64 105.372 2.14752 105.372 4V28C105.372 29.8528 103.893 31.3603 102.074 31.3603H3.92593C2.10775 31.3603 0.628148 29.8528 0.628148 28V4C0.628148 2.14752 2.10775 0.64 3.92593 0.64H102.074Z" fill="#A6A6A6"/>
<path d="M37.2322 8.19472C37.2322 8.86496 37.0374 9.39872 36.6473 9.79688C36.2041 10.2703 35.6265 10.5072 34.9165 10.5072C34.2365 10.5072 33.6584 10.2672 33.183 9.78656C32.7067 9.30624 32.469 8.71064 32.469 8C32.469 7.28904 32.7067 6.69376 33.183 6.21312C33.6584 5.73281 34.2365 5.49249 34.9165 5.49249C35.2539 5.49249 35.5769 5.55968 35.8836 5.69376C36.1903 5.82816 36.4363 6.00656 36.6203 6.23L36.2062 6.65217C35.8944 6.27249 35.4649 6.08281 34.9165 6.08281C34.4206 6.08281 33.9918 6.26033 33.6299 6.61561C33.2679 6.97128 33.087 7.43248 33.087 8C33.087 8.56752 33.2679 9.02872 33.6299 9.3844C33.9918 9.73968 34.4206 9.9172 34.9165 9.9172C35.4426 9.9172 35.8812 9.73872 36.2323 9.38128C36.4602 9.1484 36.5921 8.82472 36.6273 8.40904H34.9165V7.83248H37.1994C37.2215 7.95784 37.2322 8.07816 37.2322 8.19472Z" fill="white"/>
<path d="M37.2321 8.19467H37.1536C37.153 8.84964 36.9653 9.35836 36.5917 9.74028L36.5908 9.74092L36.5905 9.74156C36.1614 10.1987 35.6099 10.4262 34.9164 10.4272C34.2546 10.4262 33.7006 10.1962 33.2381 9.72996C32.7765 9.26276 32.5483 8.69244 32.5474 7.99996C32.5483 7.30715 32.7765 6.73715 33.2381 6.27027C33.7006 5.80371 34.2546 5.57339 34.9164 5.57243C35.2437 5.57243 35.5553 5.63747 35.8525 5.76715C36.15 5.89779 36.385 6.06899 36.5601 6.28155L36.6202 6.22995L36.5647 6.17339L36.1506 6.59587L36.2061 6.65211L36.2666 6.60091C35.9402 6.20243 35.482 6.00155 34.9164 6.00275C34.4021 6.00211 33.9497 6.18931 33.5755 6.55811C33.1976 6.92811 33.0078 7.41523 33.0084 7.99996C33.0078 8.58468 33.1976 9.0718 33.5755 9.4418C33.9497 9.8106 34.4021 9.9978 34.9164 9.99716C35.4599 9.99812 35.9231 9.81028 36.2877 9.4378C36.5313 9.189 36.6693 8.84436 36.7055 8.41588L36.7128 8.329H34.9949V7.91244H37.1993V7.83244L37.122 7.84652C37.1435 7.9678 37.1536 8.08307 37.1536 8.19467H37.2321H37.3107C37.3107 8.07307 37.2996 7.94811 37.2766 7.81811L37.265 7.75244H34.8379V8.409V8.489H36.6272V8.409L36.549 8.40212C36.5144 8.80468 36.3886 9.1078 36.1767 9.32468C35.8393 9.66716 35.4253 9.8362 34.9164 9.83716C34.4388 9.83652 34.0337 9.669 33.6844 9.32684C33.3384 8.98588 33.1663 8.5506 33.1654 7.99996C33.1663 7.44931 33.3384 7.01403 33.6844 6.67307C34.0337 6.33091 34.4388 6.16339 34.9164 6.16275C35.4473 6.16403 35.8483 6.34275 36.1461 6.70371L36.2013 6.77059L36.6758 6.28651L36.7266 6.23467L36.6803 6.17867C36.4874 5.94435 36.2304 5.75835 35.9144 5.62027C35.5979 5.48179 35.2639 5.41243 34.9164 5.41243C34.2184 5.41179 33.616 5.66179 33.1274 6.15651C32.6369 6.65027 32.3898 7.27091 32.3904 7.99996C32.3898 8.72868 32.6369 9.34964 33.1277 9.84372C33.616 10.3381 34.2184 10.5878 34.9164 10.5872C35.6433 10.5878 36.2463 10.3418 36.7039 9.85212L36.6472 9.79684L36.7027 9.8534C37.1094 9.43932 37.3112 8.87996 37.3107 8.19467H37.2321Z" fill="white"/>
<path d="M40.8516 6.1897H38.7061V7.71162H40.6409V8.28843H38.7061V9.81034H40.8516V10.4H38.1013V5.60002H40.8516V6.1897Z" fill="white"/>
<path d="M40.8515 6.18966V6.10966H38.6275V7.79158H40.5623V8.20814L38.6275 8.20838V9.8903H40.773V10.32H38.1797V5.67998H40.773V6.18966H40.8515V6.10966V6.18966H40.93V5.59998V5.51998H38.0227V10.48H40.93V9.8103V9.7303H38.7846V8.36838H40.7194V7.71158V7.63158H38.7846V6.26966H40.93V6.18966H40.8515Z" fill="white"/>
<path d="M43.404 10.4H42.7982V6.1897H41.4824V5.60002H44.7198V6.1897H43.404V10.4Z" fill="white"/>
<path d="M43.4042 10.4V10.32H42.8769V6.10966H41.5611V5.67998H44.6415V6.10966H43.3256V10.4H43.4042V10.32V10.4H43.4827V6.26966H44.7985V5.59998V5.51998H41.4041V6.18966V6.26966H42.7199V10.48H43.4042H43.4827V10.4H43.4042Z" fill="white"/>
<path d="M47.0623 10.4V5.60002H47.6674V10.4H47.0623Z" fill="white"/>
<path d="M47.0622 10.4H47.1407V5.67998H47.5888V10.32H47.0622V10.4H47.1407H47.0622V10.48H47.6673H47.7458V5.51998H47.0622H46.9836V10.48H47.0622V10.4Z" fill="white"/>
<path d="M50.3526 10.4H49.7469V6.1897H48.4312V5.60002H51.6685V6.1897H50.3526V10.4Z" fill="white"/>
<path d="M50.3528 10.4V10.32H49.8256V6.10966H48.5098V5.67998H51.5901V6.10966H50.2743V10.4H50.3528V10.32V10.4H50.4313V6.26966H51.7471V5.59998V5.51998H48.3528V6.18966V6.26966H49.6685V10.48H50.3528H50.4313V10.4H50.3528Z" fill="white"/>
<path d="M54.7896 9.37784C55.1383 9.73752 55.565 9.9172 56.0696 9.9172C56.5741 9.9172 57.001 9.73752 57.3492 9.37784C57.6982 9.01816 57.8731 8.5584 57.8731 8C57.8731 7.4416 57.6982 6.98184 57.3492 6.62217C57.001 6.26249 56.5741 6.08281 56.0696 6.08281C55.565 6.08281 55.1383 6.26249 54.7896 6.62217C54.4415 6.98184 54.2667 7.4416 54.2667 8C54.2667 8.5584 54.4415 9.01816 54.7896 9.37784ZM57.797 9.77968C57.3338 10.265 56.7578 10.5072 56.0696 10.5072C55.3806 10.5072 54.8049 10.265 54.3428 9.77968C53.8793 9.29496 53.6487 8.7016 53.6487 8C53.6487 7.2984 53.8793 6.70496 54.3428 6.22032C54.8049 5.73496 55.3806 5.49249 56.0696 5.49249C56.7542 5.49249 57.3286 5.73624 57.7939 6.22344C58.2586 6.71064 58.4911 7.3028 58.4911 8C58.4911 8.7016 58.2591 9.29496 57.797 9.77968Z" fill="white"/>
<path d="M54.7895 9.3778L54.7337 9.43404C55.0954 9.80812 55.5465 9.99812 56.0695 9.99716C56.5921 9.99812 57.0439 9.80812 57.4049 9.43404C57.7689 9.05964 57.952 8.57524 57.9515 7.99996C57.952 7.42468 57.7689 6.94028 57.4049 6.56588C57.0439 6.1918 56.5921 6.0018 56.0695 6.00276C55.5465 6.0018 55.0954 6.1918 54.7337 6.56588C54.3706 6.94028 54.1871 7.42468 54.1881 7.99996C54.1871 8.57524 54.3706 9.05964 54.7337 9.43404L54.7895 9.3778L54.8454 9.32156C54.5123 8.9762 54.3458 8.5418 54.3451 7.99996C54.3458 7.45812 54.5123 7.02372 54.8454 6.67836C55.1815 6.33308 55.583 6.16372 56.0695 6.16276C56.5556 6.16372 56.958 6.33308 57.2933 6.67836C57.627 7.02372 57.7935 7.45812 57.7941 7.99996C57.7935 8.5418 57.627 8.9762 57.2933 9.32156C56.958 9.66684 56.5556 9.8362 56.0695 9.83716C55.583 9.8362 55.1815 9.66684 54.8454 9.32156L54.7895 9.3778ZM57.7969 9.77964L57.7407 9.72404C57.2905 10.194 56.7399 10.4262 56.0695 10.4272C55.3987 10.4262 54.8481 10.194 54.3988 9.72404L54.3966 9.72156L54.3988 9.72404C53.9495 9.25244 53.7277 8.68372 53.7271 7.99996C53.7277 7.3162 53.9495 6.74748 54.3988 6.27588C54.8481 5.80588 55.3987 5.5734 56.0695 5.57244C56.7356 5.5734 57.2849 5.80684 57.7377 6.27932C58.1885 6.75308 58.4115 7.32092 58.4125 7.99996C58.4115 8.68372 58.1892 9.25244 57.7407 9.72404L57.7969 9.77964L57.8533 9.83524C58.3293 9.33716 58.5701 8.71932 58.5695 7.99996C58.5701 7.28468 58.3284 6.66812 57.8502 6.1678C57.3718 5.66556 56.7725 5.41156 56.0695 5.41244C55.3628 5.41156 54.7617 5.66436 54.2862 6.16468V6.16436C53.8093 6.66276 53.5694 7.2806 53.5701 7.99996C53.5694 8.71932 53.8093 9.33716 54.2862 9.83556L54.2884 9.8378L54.2862 9.83524C54.7617 10.3356 55.3628 10.5878 56.0695 10.5872C56.7758 10.5878 57.377 10.3356 57.8533 9.83524L57.7969 9.77964Z" fill="white"/>
<path d="M59.3408 10.4V5.60002H60.0776L62.3671 9.3341H62.3932L62.3671 8.40906V5.60002H62.9729V10.4H62.3411L59.9456 6.48499H59.9196L59.9456 7.41034V10.4H59.3408Z" fill="white"/>
<path d="M59.3407 10.4H59.4192V5.67998H60.0339L62.3235 9.41406H62.3931H62.4738L62.4456 8.40782V5.67998H62.8943V10.32H62.3846L59.9891 6.40494H59.9195H59.8388L59.867 7.41158V10.32H59.3407V10.4H59.4192H59.3407V10.48H59.9455H60.0241V7.40902L59.998 6.48278L59.9195 6.48494V6.56494H59.9455V6.48494L59.879 6.5275L62.2974 10.48H62.9728H63.0514V5.51998H62.3671H62.2885V8.40998L62.3146 9.33622L62.3931 9.33406V9.25406H62.3671V9.33406L62.4336 9.29158L60.121 5.51998H59.3407H59.2622V10.48H59.3407V10.4Z" fill="white"/>
<path d="M83.9645 24H85.4296V13.9991H83.9645V24ZM97.1611 17.6016L95.4816 21.9375H95.4313L93.6882 17.6016H92.11L94.7239 23.6619L93.2336 27.0328H94.7623L98.7903 17.6016H97.1611ZM88.8523 22.8641C88.3717 22.8641 87.7027 22.6197 87.7027 22.0147C87.7027 21.2428 88.5366 20.9469 89.2558 20.9469C89.9005 20.9469 90.2028 21.0884 90.5946 21.2816C90.4807 22.2079 89.6979 22.8641 88.8523 22.8641ZM89.0289 17.3828C87.9681 17.3828 86.8697 17.8591 86.415 18.9141L87.7153 19.4672C87.9933 18.9141 88.5107 18.7338 89.0541 18.7338C89.8118 18.7338 90.582 19.1972 90.5946 20.0207V20.1235C90.3292 19.9691 89.7615 19.7375 89.0666 19.7375C87.6651 19.7375 86.2376 20.5222 86.2376 21.9891C86.2376 23.3272 87.3871 24.1894 88.6748 24.1894C89.6602 24.1894 90.2028 23.7391 90.5443 23.2116H90.5946V23.9835H92.0087V20.1491C92.0087 18.3738 90.7084 17.3828 89.0289 17.3828ZM79.9742 18.8191H77.8903V15.391H79.9742C81.0695 15.391 81.6914 16.315 81.6914 17.105C81.6914 17.88 81.0695 18.8191 79.9742 18.8191ZM79.9365 13.9991H76.4259V24H77.8903V20.211H79.9365C81.5602 20.211 83.1565 19.0131 83.1565 17.105C83.1565 15.1969 81.5602 13.9991 79.9365 13.9991ZM60.7929 22.8659C59.7807 22.8659 58.9333 22.0025 58.9333 20.8166C58.9333 19.6182 59.7807 18.7416 60.7929 18.7416C61.7922 18.7416 62.5764 19.6182 62.5764 20.8166C62.5764 22.0025 61.7922 22.8659 60.7929 22.8659ZM62.4752 18.1616H62.4246C62.0958 17.7622 61.463 17.4013 60.6662 17.4013C58.9965 17.4013 57.466 18.8963 57.466 20.8166C57.466 22.7241 58.9965 24.2063 60.6662 24.2063C61.463 24.2063 62.0958 23.8453 62.4246 23.4331H62.4752V23.9228C62.4752 25.2247 61.7922 25.9207 60.6917 25.9207C59.7936 25.9207 59.237 25.2631 59.009 24.7091L57.7316 25.2503C58.0984 26.1525 59.0725 27.261 60.6917 27.261C62.412 27.261 63.8667 26.2297 63.8667 23.7166V17.6075H62.4752V18.1616ZM64.8786 24H66.3459V13.9987H64.8786V24ZM68.5091 20.7007C68.4711 19.3859 69.5084 18.7159 70.2547 18.7159C70.837 18.7159 71.3301 19.0122 71.4942 19.4379L68.5091 20.7007ZM73.063 19.5666C72.785 18.8059 71.937 17.4013 70.204 17.4013C68.4837 17.4013 67.0544 18.7803 67.0544 20.8038C67.0544 22.7113 68.4711 24.2063 70.3685 24.2063C71.8993 24.2063 72.785 23.2525 73.1517 22.6984L72.0132 21.925C71.6339 22.4922 71.1149 22.8659 70.3685 22.8659C69.6222 22.8659 69.091 22.5179 68.7493 21.835L73.2145 19.9531L73.063 19.5666ZM37.4877 18.4453V19.8887H40.8777C40.7765 20.7007 40.5108 21.2935 40.106 21.7059C39.6128 22.2087 38.8412 22.7628 37.4877 22.7628C35.4004 22.7628 33.7687 21.0487 33.7687 18.9222C33.7687 16.7956 35.4004 15.0813 37.4877 15.0813C38.6135 15.0813 39.4355 15.5325 40.0428 16.1125L41.0421 15.0944C40.1947 14.2694 39.0687 13.6379 37.4877 13.6379C34.6287 13.6379 32.2253 16.0094 32.2253 18.9222C32.2253 21.835 34.6287 24.2063 37.4877 24.2063C39.031 24.2063 40.1947 23.691 41.1053 22.7241C42.0414 21.7703 42.3325 20.43 42.3325 19.3475C42.3325 19.0122 42.3073 18.7031 42.2564 18.4453H37.4877ZM46.1866 22.8659C45.1745 22.8659 44.3016 22.0153 44.3016 20.8038C44.3016 19.5794 45.1745 18.7416 46.1866 18.7416C47.1984 18.7416 48.0713 19.5794 48.0713 20.8038C48.0713 22.0153 47.1984 22.8659 46.1866 22.8659ZM46.1866 17.4013C44.3396 17.4013 42.8342 18.8319 42.8342 20.8038C42.8342 22.7628 44.3396 24.2063 46.1866 24.2063C48.0333 24.2063 49.5387 22.7628 49.5387 20.8038C49.5387 18.8319 48.0333 17.4013 46.1866 17.4013ZM53.4992 22.8659C52.4874 22.8659 51.6145 22.0153 51.6145 20.8038C51.6145 19.5794 52.4874 18.7416 53.4992 18.7416C54.5111 18.7416 55.384 19.5794 55.384 20.8038C55.384 22.0153 54.5111 22.8659 53.4992 22.8659ZM53.4992 17.4013C51.6522 17.4013 50.1472 18.8319 50.1472 20.8038C50.1472 22.7628 51.6522 24.2063 53.4992 24.2063C55.346 24.2063 56.8513 22.7628 56.8513 20.8038C56.8513 18.8319 55.346 17.4013 53.4992 17.4013Z" fill="white"/>
<path d="M8.25205 25.9116L8.19371 25.8547C7.96522 25.6084 7.83032 25.2259 7.83032 24.7307V24.8472V7.15442C7.83032 7.15282 7.83032 7.15162 7.83032 7.15034C7.83032 7.15186 7.83032 7.15314 7.83032 7.15474V7.27162C7.83032 6.7353 7.98759 6.3313 8.2511 6.08906L17.9794 16.0007L8.25205 25.9116ZM7.83032 7.14938C7.83032 7.1053 7.8315 7.0625 7.8337 7.02034C7.8315 7.06218 7.83032 7.1053 7.83032 7.14938ZM7.8337 7.01842C7.8337 7.01786 7.8337 7.01722 7.83393 7.01658C7.8337 7.01722 7.8337 7.01786 7.8337 7.01842ZM7.83393 7.01282C7.83393 7.0125 7.83393 7.01218 7.83393 7.01186C7.83393 7.01218 7.83393 7.0125 7.83393 7.01282Z" fill="url(#paint0_linear_151_2127)"/>
<path d="M21.2218 19.4229L21.2957 19.3801L25.1376 17.156C25.5038 16.9438 25.748 16.6866 25.8697 16.4144C25.7483 16.6866 25.5041 16.9441 25.1376 17.1563L21.2957 19.3804L21.2218 19.4229ZM21.2227 19.3057L17.9795 16.0007L21.2224 12.6963L25.1376 14.9625C25.6347 15.2504 25.9139 15.6213 25.9605 16.0004C25.9605 16.0007 25.9605 16.0013 25.9605 16.0019C25.9139 16.3801 25.6347 16.7513 25.1376 17.0391L21.2227 19.3057Z" fill="url(#paint1_linear_151_2127)"/>
<path d="M8.9456 26.2891C8.67385 26.2891 8.43672 26.1991 8.25181 26.0291L8.25212 26.0287C8.43703 26.1987 8.67447 26.2891 8.94623 26.2891C8.96978 26.2891 8.99373 26.2884 9.01799 26.2872C8.99342 26.2884 8.96915 26.2891 8.9456 26.2891ZM8.94591 26.1719C8.67416 26.1722 8.43703 26.0819 8.25212 25.9119V25.9116L17.9795 16.0007L21.2227 19.3056L9.82556 25.9035C9.51022 26.0856 9.21146 26.1719 8.94591 26.1719ZM8.24938 26.0269C8.23218 26.011 8.2153 25.9941 8.19873 25.9766L8.24938 26.0269Z" fill="url(#paint2_linear_151_2127)"/>
<path d="M17.9795 16.0006L8.25122 6.08901C8.43613 5.91933 8.67294 5.82933 8.94438 5.82933C9.21064 5.82933 9.50964 5.91589 9.8256 6.09837L21.2224 12.6962L17.9795 16.0006ZM21.2957 12.6216L9.8256 5.98157C9.50964 5.79901 9.21064 5.71245 8.94438 5.71245C8.94313 5.71245 8.94226 5.71245 8.94101 5.71245C8.94258 5.71245 8.94375 5.71245 8.94564 5.71245C9.21127 5.71245 9.50995 5.79869 9.8256 5.98125L21.2957 12.6216Z" fill="url(#paint3_linear_151_2127)"/>
<path d="M9.01806 26.2872C9.26492 26.2728 9.53824 26.1863 9.82562 26.0204L21.2218 19.4228L9.82562 26.0204C9.53848 26.1866 9.26492 26.2728 9.01806 26.2872ZM8.25187 26.0291L8.24944 26.0269C8.2503 26.0276 8.25124 26.0284 8.25187 26.0291ZM8.19879 25.9766L8.19385 25.9716V25.9713C8.19573 25.9732 8.19722 25.975 8.19879 25.9766Z" fill="black"/>
<path d="M21.2219 19.4229L21.2959 19.3801L21.2219 19.4229Z" fill="url(#paint4_linear_151_2127)"/>
<path d="M8.94629 26.2891C8.67454 26.2891 8.4371 26.1987 8.25219 26.0287L8.25187 26.0291C8.25124 26.0284 8.2503 26.0275 8.24944 26.0269L8.19879 25.9766C8.19722 25.975 8.19573 25.9731 8.19385 25.9713L8.25219 25.9119C8.4371 26.0819 8.67422 26.1722 8.94598 26.1719C9.21153 26.1719 9.51029 26.0856 9.82562 25.9035L21.2227 19.3056L21.2958 19.38L21.2218 19.4228L9.82562 26.0203C9.53824 26.1863 9.26492 26.2728 9.01806 26.2872C8.99379 26.2884 8.96985 26.2891 8.94629 26.2891Z" fill="url(#paint5_linear_151_2127)"/>
<path d="M8.19371 25.9716C7.96522 25.7252 7.83032 25.3428 7.83032 24.8475V24.8472C7.83032 25.3428 7.96522 25.7249 8.19371 25.9712V25.9716Z" fill="black"/>
<path d="M8.19371 25.9713C7.96522 25.725 7.83032 25.3428 7.83032 24.8472V24.7307C7.83032 25.226 7.96522 25.6084 8.19371 25.8548L8.25205 25.9116L8.19371 25.9713Z" fill="url(#paint6_linear_151_2127)"/>
<path d="M8.19385 25.9713L8.25219 25.9116V25.9119L8.19385 25.9713Z" fill="url(#paint7_linear_151_2127)"/>
<path d="M25.8699 16.4143C25.9303 16.2793 25.9607 16.1405 25.9607 16.0017C25.9607 16.0015 25.9607 16.0012 25.9607 16.0012C25.9607 16.1402 25.9303 16.2789 25.8699 16.4143Z" fill="black"/>
<path d="M21.2957 19.38L21.2227 19.3056L25.1375 17.039C25.6347 16.7513 25.9138 16.38 25.9605 16.0018C25.9605 16.1406 25.9301 16.2794 25.8697 16.4144C25.7479 16.6866 25.5038 16.9438 25.1375 17.1559L21.2957 19.38Z" fill="url(#paint8_linear_151_2127)"/>
<path d="M25.9605 16.0006V16.0003C25.9602 15.5818 25.6857 15.1634 25.1376 14.8459L21.2957 12.6218H21.2954L21.2957 12.6216L25.1376 14.8456C25.6863 15.1631 25.9611 15.5821 25.9605 16.0006Z" fill="#404040"/>
<path d="M25.9605 16.0002C25.9139 15.6212 25.6348 15.2502 25.1376 14.9624L21.2224 12.6962L21.2954 12.6218H21.2957L25.1376 14.8458C25.6857 15.1634 25.9602 15.5818 25.9605 16.0002Z" fill="url(#paint9_linear_151_2127)"/>
<path d="M7.83032 7.15027C7.83032 7.14995 7.83032 7.14963 7.83032 7.14931C7.83032 7.14963 7.83032 7.14995 7.83032 7.15027ZM7.8337 7.02027C7.8337 7.01963 7.8337 7.01899 7.8337 7.01835C7.8337 7.01899 7.8337 7.01963 7.8337 7.02027ZM7.83393 7.01651C7.83393 7.01523 7.83393 7.01403 7.83393 7.01275C7.83393 7.01403 7.83393 7.01523 7.83393 7.01651ZM7.83393 7.01179C7.8794 6.18995 8.318 5.71523 8.93845 5.71243C8.66945 5.71403 8.43515 5.80403 8.25173 5.97243V5.97211L8.24953 5.97435C8.23022 5.99211 8.21184 6.01091 8.19371 6.03027C7.98759 6.25243 7.85757 6.58523 7.83393 7.01179Z" fill="#404040"/>
<path d="M7.83032 7.27161V7.15473C7.83032 7.15313 7.83032 7.15185 7.83032 7.15033C7.83032 7.15001 7.83032 7.14969 7.83032 7.14937C7.83032 7.10529 7.8315 7.06217 7.8337 7.02033C7.8337 7.01969 7.8337 7.01905 7.8337 7.01841C7.8337 7.01785 7.8337 7.01721 7.83393 7.01657C7.83393 7.01529 7.83393 7.01409 7.83393 7.01281C7.83393 7.01249 7.83393 7.01217 7.83393 7.01185C7.85757 6.58529 7.98759 6.25248 8.19371 6.03032L8.2511 6.08904C7.98759 6.33128 7.83032 6.73528 7.83032 7.27161ZM8.24953 5.9744L8.25173 5.97216C8.2511 5.97312 8.25016 5.97376 8.24953 5.9744Z" fill="url(#paint10_linear_151_2127)"/>
<path d="M21.2224 12.6963L9.82562 6.09845C9.50966 5.91597 9.21066 5.82941 8.94441 5.82941C8.67297 5.82941 8.43616 5.91941 8.25124 6.08909L8.19385 6.03037C8.21199 6.01101 8.23036 5.99221 8.24967 5.97445C8.2503 5.97381 8.25124 5.97317 8.25187 5.97253C8.43529 5.80413 8.66959 5.71413 8.9386 5.71253C8.93922 5.71253 8.94009 5.71253 8.94103 5.71253C8.94229 5.71253 8.94315 5.71253 8.94441 5.71253C9.21066 5.71253 9.50966 5.79909 9.82562 5.98165L21.2958 12.6216L21.2954 12.6219L21.2224 12.6963Z" fill="url(#paint11_linear_151_2127)"/>
<defs>
<linearGradient id="paint0_linear_151_2127" x1="17.1168" y1="6.96778" x2="3.69313" y2="20.1428" gradientUnits="userSpaceOnUse">
<stop stop-color="#00A0FF"/>
<stop offset="0.00657445" stop-color="#00A1FF"/>
<stop offset="0.2601" stop-color="#00BEFF"/>
<stop offset="0.5122" stop-color="#00D2FF"/>
<stop offset="0.7604" stop-color="#00DFFF"/>
<stop offset="1" stop-color="#00E3FF"/>
</linearGradient>
<linearGradient id="paint1_linear_151_2127" x1="26.5663" y1="16.0012" x2="7.56715" y2="16.0012" gradientUnits="userSpaceOnUse">
<stop stop-color="#FFE000"/>
<stop offset="0.4087" stop-color="#FFBD00"/>
<stop offset="0.7754" stop-color="#FFA500"/>
<stop offset="1" stop-color="#FF9C00"/>
</linearGradient>
<linearGradient id="paint2_linear_151_2127" x1="19.4938" y1="17.8369" x2="1.2903" y2="35.7033" gradientUnits="userSpaceOnUse">
<stop stop-color="#FF3A44"/>
<stop offset="1" stop-color="#C31162"/>
</linearGradient>
<linearGradient id="paint3_linear_151_2127" x1="5.72975" y1="0.140926" x2="13.8583" y2="8.11898" gradientUnits="userSpaceOnUse">
<stop stop-color="#32A071"/>
<stop offset="0.0685" stop-color="#2DA771"/>
<stop offset="0.4762" stop-color="#15CF74"/>
<stop offset="0.8009" stop-color="#06E775"/>
<stop offset="1" stop-color="#00F076"/>
</linearGradient>
<linearGradient id="paint4_linear_151_2127" x1="26.5664" y1="16.0011" x2="7.56732" y2="16.0011" gradientUnits="userSpaceOnUse">
<stop stop-color="#CCB300"/>
<stop offset="0.4087" stop-color="#CC9700"/>
<stop offset="0.7754" stop-color="#CC8400"/>
<stop offset="1" stop-color="#CC7D00"/>
</linearGradient>
<linearGradient id="paint5_linear_151_2127" x1="19.4938" y1="17.8369" x2="1.29036" y2="35.7032" gradientUnits="userSpaceOnUse">
<stop stop-color="#CC2E36"/>
<stop offset="1" stop-color="#9C0E4E"/>
</linearGradient>
<linearGradient id="paint6_linear_151_2127" x1="17.1168" y1="6.96776" x2="3.69311" y2="20.1428" gradientUnits="userSpaceOnUse">
<stop stop-color="#008DE0"/>
<stop offset="0.00657445" stop-color="#008DE0"/>
<stop offset="0.2601" stop-color="#00A7E0"/>
<stop offset="0.5122" stop-color="#00B8E0"/>
<stop offset="0.7604" stop-color="#00C4E0"/>
<stop offset="1" stop-color="#00C7E0"/>
</linearGradient>
<linearGradient id="paint7_linear_151_2127" x1="19.4936" y1="17.8364" x2="1.28913" y2="35.7024" gradientUnits="userSpaceOnUse">
<stop stop-color="#E0333C"/>
<stop offset="1" stop-color="#AB0F56"/>
</linearGradient>
<linearGradient id="paint8_linear_151_2127" x1="26.5662" y1="16.0011" x2="7.56711" y2="16.0011" gradientUnits="userSpaceOnUse">
<stop stop-color="#E0C500"/>
<stop offset="0.4087" stop-color="#E0A600"/>
<stop offset="0.7754" stop-color="#E09100"/>
<stop offset="1" stop-color="#E08900"/>
</linearGradient>
<linearGradient id="paint9_linear_151_2127" x1="26.5663" y1="16.001" x2="7.56719" y2="16.001" gradientUnits="userSpaceOnUse">
<stop stop-color="#FFE840"/>
<stop offset="0.4087" stop-color="#FFCE40"/>
<stop offset="0.7754" stop-color="#FFBC40"/>
<stop offset="1" stop-color="#FFB540"/>
</linearGradient>
<linearGradient id="paint10_linear_151_2127" x1="17.1168" y1="6.96777" x2="3.6931" y2="20.1428" gradientUnits="userSpaceOnUse">
<stop stop-color="#40B8FF"/>
<stop offset="0.00657445" stop-color="#40B9FF"/>
<stop offset="0.2601" stop-color="#40CEFF"/>
<stop offset="0.5122" stop-color="#40DDFF"/>
<stop offset="0.7604" stop-color="#40E7FF"/>
<stop offset="1" stop-color="#40EAFF"/>
</linearGradient>
<linearGradient id="paint11_linear_151_2127" x1="5.72978" y1="0.141004" x2="13.8584" y2="8.11905" gradientUnits="userSpaceOnUse">
<stop stop-color="#65B895"/>
<stop offset="0.0685" stop-color="#62BD95"/>
<stop offset="0.4762" stop-color="#50DB97"/>
<stop offset="0.8009" stop-color="#44ED98"/>
<stop offset="1" stop-color="#40F498"/>
</linearGradient>
</defs>
</svg>
